<svg xmlns="http://www.w3.org/2000/svg" width="35.986" height="35.985" viewBox="0 0 35.986 35.985">
  <g id="Discover" transform="translate(-336.5 -611)">
    <g id="Group_131" data-name="Group 131" transform="translate(356.475 630.975)">
      <path id="Path_275" data-name="Path 275" d="M362.177,630.839A5.838,5.838,0,1,1,356.34,625,5.839,5.839,0,0,1,362.177,630.839Z" transform="translate(-350.5 -625)" fill="none" stroke="coral" stroke-linejoin="round" stroke-width="2"/>
      <line id="Line_20" data-name="Line 20" x2="4.63" y2="4.63" transform="translate(9.966 9.966)" fill="none" stroke="coral" stroke-linecap="round" stroke-linejoin="round" stroke-width="2"/>
    </g>
    <g id="Group_132" data-name="Group 132" transform="translate(337.5 612)">
      <path id="Path_276" data-name="Path 276" d="M354.286,645.571a16.786,16.786,0,1,1,16.786-16.786" transform="translate(-337.5 -612)" fill="none" stroke="coral" stroke-linecap="round" stroke-linejoin="round" stroke-width="2"/>
      <path id="Path_277" data-name="Path 277" d="M348.8,636.584v-3.649l-7.3-5.839,3.287-5.109h8.39v-4.379l-2.189-1.46,6.369-3.649" transform="translate(-335.662 -611.77)" fill="none" stroke="coral" stroke-linecap="round" stroke-linejoin="round" stroke-width="2"/>
      <path id="Path_278" data-name="Path 278" d="M359.912,615.755l-2.551,4.737h-2.554l-2.554,2.554" transform="translate(-330.72 -610.274)" fill="none" stroke="coral" stroke-linecap="round" stroke-linejoin="round" stroke-width="2"/>
    </g>
  </g>
</svg>
