<svg width="190" height="29" viewBox="0 0 190 29" fill="none" xmlns="http://www.w3.org/2000/svg">
<path fill-rule="evenodd" clip-rule="evenodd" d="M12.9707 0C5.71122 0.577001 0 6.65091 0 14.0587C0 21.8479 6.31439 28.1623 14.1036 28.1623C20.1174 28.1623 25.2521 24.3983 27.2804 19.0977H12.9707V0ZM28.1843 14.869C28.1995 14.6008 28.2072 14.3307 28.2072 14.0587C28.2072 7.68581 23.9802 2.30014 18.177 0.552331V14.869H28.1843Z" fill="#119C59"/>
<path d="M18.0493 14.9562V0.0322266C18.0493 0.0322266 23.4056 1.65001 26.2201 6.42245C29.0346 11.1949 28.4741 14.9562 28.4741 14.9562H18.0493Z" fill="#25282B"/>
<path d="M44.3589 3.92871H48.1903V21.3173H58.9771V24.5592H44.3589V3.92871Z" fill="#119C59"/>
<path d="M76.3649 16.7786C76.3649 17.034 76.3452 17.3975 76.3059 17.8691H63.9571C64.1732 19.0283 64.7332 19.9518 65.637 20.6394C66.5605 21.3075 67.7001 21.6415 69.0558 21.6415C70.7848 21.6415 72.2093 21.0717 73.3292 19.9321L75.3039 22.2015C74.5965 23.0463 73.7026 23.6849 72.6219 24.1172C71.5413 24.5494 70.3231 24.7656 68.9674 24.7656C67.2383 24.7656 65.7156 24.4217 64.3992 23.734C63.0827 23.0463 62.061 22.0934 61.3341 20.8752C60.6267 19.6374 60.2731 18.2424 60.2731 16.6902C60.2731 15.1576 60.6169 13.7822 61.3046 12.5641C62.0119 11.3262 62.9845 10.3635 64.2223 9.67579C65.4602 8.98811 66.8552 8.64426 68.4074 8.64426C69.9399 8.64426 71.3055 8.98811 72.504 9.67579C73.7222 10.3438 74.6653 11.2968 75.3333 12.5346C76.021 13.7528 76.3649 15.1674 76.3649 16.7786ZM68.4074 11.5915C67.2285 11.5915 66.2264 11.9451 65.4012 12.6525C64.5956 13.3402 64.1044 14.2636 63.9276 15.4229H72.8577C72.7005 14.2833 72.2191 13.3598 71.4135 12.6525C70.608 11.9451 69.6059 11.5915 68.4074 11.5915Z" fill="#119C59"/>
<path d="M89.4297 23.7046C88.9974 24.0582 88.4669 24.3235 87.8382 24.5003C87.2291 24.6771 86.5807 24.7656 85.893 24.7656C84.164 24.7656 82.8279 24.3136 81.8848 23.4098C80.9417 22.506 80.4701 21.1896 80.4701 19.4606V11.8862H77.8766V8.93898H80.4701V5.34338H84.1542V8.93898H88.3687V11.8862H84.1542V19.3721C84.1542 20.1384 84.3408 20.7279 84.7141 21.1405C85.0874 21.5334 85.6278 21.7299 86.3351 21.7299C87.1603 21.7299 87.848 21.5138 88.3982 21.0815L89.4297 23.7046Z" fill="#119C59"/>
<path d="M101.612 23.7046C101.18 24.0582 100.649 24.3235 100.021 24.5003C99.4116 24.6771 98.7632 24.7656 98.0755 24.7656C96.3465 24.7656 95.0104 24.3136 94.0673 23.4098C93.1242 22.506 92.6526 21.1896 92.6526 19.4606V11.8862H90.0591V8.93898H92.6526V5.34338H96.3366V8.93898H100.551V11.8862H96.3366V19.3721C96.3366 20.1384 96.5233 20.7279 96.8966 21.1405C97.2699 21.5334 97.8103 21.7299 98.5176 21.7299C99.3428 21.7299 100.03 21.5138 100.581 21.0815L101.612 23.7046Z" fill="#119C59"/>
<path d="M118.985 16.7786C118.985 17.034 118.966 17.3975 118.926 17.8691H106.577C106.794 19.0283 107.354 19.9518 108.257 20.6394C109.181 21.3075 110.32 21.6415 111.676 21.6415C113.405 21.6415 114.83 21.0717 115.95 19.9321L117.924 22.2015C117.217 23.0463 116.323 23.6849 115.242 24.1172C114.162 24.5494 112.943 24.7656 111.588 24.7656C109.859 24.7656 108.336 24.4217 107.019 23.734C105.703 23.0463 104.681 22.0934 103.954 20.8752C103.247 19.6374 102.893 18.2424 102.893 16.6902C102.893 15.1576 103.237 13.7822 103.925 12.5641C104.632 11.3262 105.605 10.3635 106.843 9.67579C108.08 8.98811 109.476 8.64426 111.028 8.64426C112.56 8.64426 113.926 8.98811 115.124 9.67579C116.343 10.3438 117.286 11.2968 117.954 12.5346C118.641 13.7528 118.985 15.1674 118.985 16.7786ZM111.028 11.5915C109.849 11.5915 108.847 11.9451 108.022 12.6525C107.216 13.3402 106.725 14.2636 106.548 15.4229H115.478C115.321 14.2833 114.839 13.3598 114.034 12.6525C113.228 11.9451 112.226 11.5915 111.028 11.5915Z" fill="#119C59"/>
<path d="M126.097 11.1199C127.158 9.46948 129.024 8.64426 131.696 8.64426V12.1515C131.382 12.0925 131.097 12.063 130.842 12.063C129.407 12.063 128.287 12.4855 127.482 13.3303C126.676 14.1556 126.273 15.3541 126.273 16.926V24.5592H122.589V8.8211H126.097V11.1199Z" fill="#119C59"/>
<path d="M149.715 13.8314C150.855 14.2047 151.758 14.8334 152.426 15.7176C153.094 16.5821 153.429 17.6628 153.429 18.9595C153.429 20.7475 152.741 22.1327 151.365 23.1151C149.99 24.0779 147.986 24.5592 145.353 24.5592H135.097V3.92871H144.764C147.2 3.92871 149.076 4.41009 150.393 5.37285C151.709 6.31596 152.368 7.62256 152.368 9.29265C152.368 10.3144 152.132 11.2182 151.66 12.0041C151.189 12.79 150.54 13.3991 149.715 13.8314ZM138.928 6.93488V12.623H144.351C145.687 12.623 146.709 12.3872 147.416 11.9157C148.143 11.4245 148.507 10.7171 148.507 9.79368C148.507 8.85057 148.143 8.14324 147.416 7.67168C146.709 7.18048 145.687 6.93488 144.351 6.93488H138.928ZM145.117 21.5531C148.084 21.5531 149.568 20.5609 149.568 18.5764C149.568 16.5919 148.084 15.5997 145.117 15.5997H138.928V21.5531H145.117Z" fill="#119C59"/>
<path d="M164.303 24.7656C162.711 24.7656 161.277 24.4217 160 23.734C158.723 23.0463 157.721 22.0934 156.994 20.8752C156.286 19.6374 155.933 18.2424 155.933 16.6902C155.933 15.138 156.286 13.7528 156.994 12.5346C157.721 11.3164 158.723 10.3635 160 9.67579C161.277 8.98811 162.711 8.64426 164.303 8.64426C165.914 8.64426 167.358 8.98811 168.635 9.67579C169.912 10.3635 170.904 11.3164 171.612 12.5346C172.339 13.7528 172.702 15.138 172.702 16.6902C172.702 18.2424 172.339 19.6374 171.612 20.8752C170.904 22.0934 169.912 23.0463 168.635 23.734C167.358 24.4217 165.914 24.7656 164.303 24.7656ZM164.303 21.612C165.658 21.612 166.778 21.1601 167.663 20.2563C168.547 19.3525 168.989 18.1638 168.989 16.6902C168.989 15.2166 168.547 14.0279 167.663 13.124C166.778 12.2202 165.658 11.7683 164.303 11.7683C162.947 11.7683 161.827 12.2202 160.943 13.124C160.078 14.0279 159.646 15.2166 159.646 16.6902C159.646 18.1638 160.078 19.3525 160.943 20.2563C161.827 21.1601 162.947 21.612 164.303 21.612Z" fill="#119C59"/>
<path d="M185.793 24.5592L181.755 19.1069L177.688 24.5592H173.621L179.751 16.5723L173.886 8.8211H177.983L181.844 13.9787L185.705 8.8211H189.683L183.789 16.5133L189.949 24.5592H185.793Z" fill="#119C59"/>
</svg>
